<svg xmlns="http://www.w3.org/2000/svg" xmlns:xlink="http://www.w3.org/1999/xlink" width="500" zoomAndPan="magnify" viewBox="0 0 375 374.999991" height="500" preserveAspectRatio="xMidYMid meet" version="1.2"><defs/><g id="e338da3eaf"><rect x="0" width="375" y="0" height="374.999991" style="fill:#ffffff;fill-opacity:1;stroke:none;"/><rect x="0" width="375" y="0" height="374.999991" style="fill:#e4e2dd;fill-opacity:1;stroke:none;"/><g style="fill:#262525;fill-opacity:1;"><g transform="translate(109.63559, 214.09925)"><path style="stroke:none" d="M 29.3125 -68.21875 L 29.3125 -46.078125 L 68.09375 -46.078125 L 68.09375 -30.515625 L 29.3125 -30.515625 L 29.3125 0 L 9.9375 0 L 9.9375 -83.765625 L 73.234375 -83.765625 L 73.234375 -68.21875 Z M 29.3125 -68.21875 "/></g></g><g style="fill:#262525;fill-opacity:1;"><g transform="translate(171.014195, 214.09925)"><path style="stroke:none" d="M 9.9375 -83.765625 L 47.984375 -83.765625 C 57.078125 -83.765625 65.113281 -82.03125 72.09375 -78.5625 C 79.082031 -75.09375 84.507812 -70.207031 88.375 -63.90625 C 92.25 -57.601562 94.1875 -50.265625 94.1875 -41.890625 C 94.1875 -33.503906 92.25 -26.160156 88.375 -19.859375 C 84.507812 -13.554688 79.082031 -8.671875 72.09375 -5.203125 C 65.113281 -1.734375 57.078125 0 47.984375 0 L 9.9375 0 Z M 47.03125 -15.921875 C 55.40625 -15.921875 62.085938 -18.253906 67.078125 -22.921875 C 72.066406 -27.585938 74.5625 -33.910156 74.5625 -41.890625 C 74.5625 -49.867188 72.066406 -56.191406 67.078125 -60.859375 C 62.085938 -65.523438 55.40625 -67.859375 47.03125 -67.859375 L 29.3125 -67.859375 L 29.3125 -15.921875 Z M 47.03125 -15.921875 "/></g></g><g style="fill:#262525;fill-opacity:1;"><g transform="translate(87.41455, 234.737387)"><path style="stroke:none" d="M 3.21875 -7.484375 L 3.21875 -5.0625 L 7.484375 -5.0625 L 7.484375 -3.34375 L 3.21875 -3.34375 L 3.21875 0 L 1.09375 0 L 1.09375 -9.203125 L 8.046875 -9.203125 L 8.046875 -7.484375 Z M 3.21875 -7.484375 "/></g></g><g style="fill:#262525;fill-opacity:1;"><g transform="translate(98.739496, 234.737387)"><path style="stroke:none" d="M 1.09375 -9.203125 L 3.21875 -9.203125 L 3.21875 0 L 1.09375 0 Z M 1.09375 -9.203125 "/></g></g><g style="fill:#262525;fill-opacity:1;"><g transform="translate(105.978914, 234.737387)"><path style="stroke:none" d="M 9.53125 -9.203125 L 9.53125 0 L 7.78125 0 L 3.1875 -5.578125 L 3.1875 0 L 1.09375 0 L 1.09375 -9.203125 L 2.84375 -9.203125 L 7.421875 -3.609375 L 7.421875 -9.203125 Z M 9.53125 -9.203125 "/></g></g><g style="fill:#262525;fill-opacity:1;"><g transform="translate(119.523969, 234.737387)"><path style="stroke:none" d="M 7.15625 -1.96875 L 2.875 -1.96875 L 2.0625 0 L -0.125 0 L 3.984375 -9.203125 L 6.078125 -9.203125 L 10.203125 0 L 7.96875 0 Z M 6.484375 -3.59375 L 5.015625 -7.109375 L 3.5625 -3.59375 Z M 6.484375 -3.59375 "/></g></g><g style="fill:#262525;fill-opacity:1;"><g transform="translate(132.517281, 234.737387)"><path style="stroke:none" d="M 9.53125 -9.203125 L 9.53125 0 L 7.78125 0 L 3.1875 -5.578125 L 3.1875 0 L 1.09375 0 L 1.09375 -9.203125 L 2.84375 -9.203125 L 7.421875 -3.609375 L 7.421875 -9.203125 Z M 9.53125 -9.203125 "/></g></g><g style="fill:#262525;fill-opacity:1;"><g transform="translate(146.062335, 234.737387)"><path style="stroke:none" d="M 5.5 0.15625 C 4.5625 0.15625 3.710938 -0.046875 2.953125 -0.453125 C 2.191406 -0.859375 1.59375 -1.421875 1.15625 -2.140625 C 0.726562 -2.867188 0.515625 -3.6875 0.515625 -4.59375 C 0.515625 -5.507812 0.726562 -6.328125 1.15625 -7.046875 C 1.59375 -7.773438 2.191406 -8.34375 2.953125 -8.75 C 3.710938 -9.15625 4.5625 -9.359375 5.5 -9.359375 C 6.300781 -9.359375 7.023438 -9.21875 7.671875 -8.9375 C 8.316406 -8.65625 8.859375 -8.253906 9.296875 -7.734375 L 7.921875 -6.46875 C 7.296875 -7.1875 6.523438 -7.546875 5.609375 -7.546875 C 5.035156 -7.546875 4.523438 -7.421875 4.078125 -7.171875 C 3.640625 -6.921875 3.296875 -6.570312 3.046875 -6.125 C 2.796875 -5.675781 2.671875 -5.164062 2.671875 -4.59375 C 2.671875 -4.03125 2.796875 -3.523438 3.046875 -3.078125 C 3.296875 -2.628906 3.640625 -2.28125 4.078125 -2.03125 C 4.523438 -1.78125 5.035156 -1.65625 5.609375 -1.65625 C 6.523438 -1.65625 7.296875 -2.019531 7.921875 -2.75 L 9.296875 -1.484375 C 8.859375 -0.953125 8.3125 -0.546875 7.65625 -0.265625 C 7.007812 0.015625 6.289062 0.15625 5.5 0.15625 Z M 5.5 0.15625 "/></g></g><g style="fill:#262525;fill-opacity:1;"><g transform="translate(158.622134, 234.737387)"><path style="stroke:none" d="M 8.21875 -1.703125 L 8.21875 0 L 1.09375 0 L 1.09375 -9.203125 L 8.046875 -9.203125 L 8.046875 -7.484375 L 3.203125 -7.484375 L 3.203125 -5.5 L 7.484375 -5.5 L 7.484375 -3.84375 L 3.203125 -3.84375 L 3.203125 -1.703125 Z M 8.21875 -1.703125 "/></g></g><g style="fill:#262525;fill-opacity:1;"><g transform="translate(170.367456, 234.737387)"><path style="stroke:none" d=""/></g></g><g style="fill:#262525;fill-opacity:1;"><g transform="translate(177.015718, 234.737387)"><path style="stroke:none" d="M 1.09375 -9.203125 L 5.265625 -9.203125 C 6.265625 -9.203125 7.144531 -9.007812 7.90625 -8.625 C 8.675781 -8.25 9.273438 -7.710938 9.703125 -7.015625 C 10.128906 -6.328125 10.34375 -5.519531 10.34375 -4.59375 C 10.34375 -3.675781 10.128906 -2.867188 9.703125 -2.171875 C 9.273438 -1.484375 8.675781 -0.945312 7.90625 -0.5625 C 7.144531 -0.1875 6.265625 0 5.265625 0 L 1.09375 0 Z M 5.171875 -1.75 C 6.085938 -1.75 6.816406 -2.003906 7.359375 -2.515625 C 7.910156 -3.023438 8.1875 -3.71875 8.1875 -4.59375 C 8.1875 -5.46875 7.910156 -6.160156 7.359375 -6.671875 C 6.816406 -7.191406 6.085938 -7.453125 5.171875 -7.453125 L 3.21875 -7.453125 L 3.21875 -1.75 Z M 5.171875 -1.75 "/></g></g><g style="fill:#262525;fill-opacity:1;"><g transform="translate(190.797241, 234.737387)"><path style="stroke:none" d="M 7.15625 -1.96875 L 2.875 -1.96875 L 2.0625 0 L -0.125 0 L 3.984375 -9.203125 L 6.078125 -9.203125 L 10.203125 0 L 7.96875 0 Z M 6.484375 -3.59375 L 5.015625 -7.109375 L 3.5625 -3.59375 Z M 6.484375 -3.59375 "/></g></g><g style="fill:#262525;fill-opacity:1;"><g transform="translate(203.790553, 234.737387)"><path style="stroke:none" d="M 4.109375 0.15625 C 3.378906 0.15625 2.675781 0.0546875 2 -0.140625 C 1.320312 -0.335938 0.78125 -0.59375 0.375 -0.90625 L 1.09375 -2.515625 C 1.488281 -2.222656 1.957031 -1.988281 2.5 -1.8125 C 3.039062 -1.632812 3.582031 -1.546875 4.125 -1.546875 C 4.726562 -1.546875 5.175781 -1.632812 5.46875 -1.8125 C 5.757812 -2 5.90625 -2.238281 5.90625 -2.53125 C 5.90625 -2.75 5.816406 -2.929688 5.640625 -3.078125 C 5.472656 -3.222656 5.253906 -3.335938 4.984375 -3.421875 C 4.722656 -3.515625 4.363281 -3.613281 3.90625 -3.71875 C 3.195312 -3.882812 2.617188 -4.050781 2.171875 -4.21875 C 1.734375 -4.382812 1.351562 -4.648438 1.03125 -5.015625 C 0.707031 -5.390625 0.546875 -5.878906 0.546875 -6.484375 C 0.546875 -7.023438 0.691406 -7.507812 0.984375 -7.9375 C 1.273438 -8.375 1.710938 -8.71875 2.296875 -8.96875 C 2.878906 -9.226562 3.585938 -9.359375 4.421875 -9.359375 C 5.015625 -9.359375 5.585938 -9.285156 6.140625 -9.140625 C 6.703125 -9.003906 7.195312 -8.804688 7.625 -8.546875 L 6.96875 -6.921875 C 6.113281 -7.398438 5.265625 -7.640625 4.421875 -7.640625 C 3.816406 -7.640625 3.375 -7.539062 3.09375 -7.34375 C 2.8125 -7.15625 2.671875 -6.90625 2.671875 -6.59375 C 2.671875 -6.28125 2.832031 -6.046875 3.15625 -5.890625 C 3.488281 -5.734375 3.992188 -5.582031 4.671875 -5.4375 C 5.367188 -5.269531 5.941406 -5.101562 6.390625 -4.9375 C 6.835938 -4.769531 7.21875 -4.503906 7.53125 -4.140625 C 7.851562 -3.785156 8.015625 -3.300781 8.015625 -2.6875 C 8.015625 -2.164062 7.867188 -1.6875 7.578125 -1.25 C 7.285156 -0.820312 6.84375 -0.476562 6.25 -0.21875 C 5.664062 0.03125 4.953125 0.15625 4.109375 0.15625 Z M 4.109375 0.15625 "/></g></g><g style="fill:#262525;fill-opacity:1;"><g transform="translate(215.102362, 234.737387)"><path style="stroke:none" d="M 9.53125 -9.203125 L 9.53125 0 L 7.390625 0 L 7.390625 -3.765625 L 3.21875 -3.765625 L 3.21875 0 L 1.09375 0 L 1.09375 -9.203125 L 3.21875 -9.203125 L 3.21875 -5.578125 L 7.390625 -5.578125 L 7.390625 -9.203125 Z M 9.53125 -9.203125 "/></g></g><g style="fill:#262525;fill-opacity:1;"><g transform="translate(228.647416, 234.737387)"><path style="stroke:none" d="M 7.84375 -4.78125 C 8.375 -4.613281 8.785156 -4.332031 9.078125 -3.9375 C 9.378906 -3.550781 9.53125 -3.078125 9.53125 -2.515625 C 9.53125 -1.703125 9.210938 -1.078125 8.578125 -0.640625 C 7.953125 -0.210938 7.039062 0 5.84375 0 L 1.09375 0 L 1.09375 -9.203125 L 5.578125 -9.203125 C 6.703125 -9.203125 7.5625 -8.984375 8.15625 -8.546875 C 8.757812 -8.117188 9.0625 -7.539062 9.0625 -6.8125 C 9.0625 -6.363281 8.953125 -5.960938 8.734375 -5.609375 C 8.523438 -5.253906 8.226562 -4.976562 7.84375 -4.78125 Z M 3.203125 -7.59375 L 3.203125 -5.421875 L 5.328125 -5.421875 C 5.847656 -5.421875 6.242188 -5.515625 6.515625 -5.703125 C 6.785156 -5.890625 6.921875 -6.160156 6.921875 -6.515625 C 6.921875 -6.878906 6.785156 -7.148438 6.515625 -7.328125 C 6.242188 -7.503906 5.847656 -7.59375 5.328125 -7.59375 Z M 5.6875 -1.609375 C 6.25 -1.609375 6.671875 -1.695312 6.953125 -1.875 C 7.242188 -2.0625 7.390625 -2.347656 7.390625 -2.734375 C 7.390625 -3.492188 6.820312 -3.875 5.6875 -3.875 L 3.203125 -3.875 L 3.203125 -1.609375 Z M 5.6875 -1.609375 "/></g></g><g style="fill:#262525;fill-opacity:1;"><g transform="translate(241.627591, 234.737387)"><path style="stroke:none" d="M 5.546875 0.15625 C 4.585938 0.15625 3.722656 -0.046875 2.953125 -0.453125 C 2.191406 -0.867188 1.59375 -1.4375 1.15625 -2.15625 C 0.726562 -2.882812 0.515625 -3.695312 0.515625 -4.59375 C 0.515625 -5.5 0.726562 -6.3125 1.15625 -7.03125 C 1.59375 -7.757812 2.191406 -8.328125 2.953125 -8.734375 C 3.722656 -9.148438 4.585938 -9.359375 5.546875 -9.359375 C 6.503906 -9.359375 7.363281 -9.148438 8.125 -8.734375 C 8.882812 -8.328125 9.484375 -7.757812 9.921875 -7.03125 C 10.359375 -6.3125 10.578125 -5.5 10.578125 -4.59375 C 10.578125 -3.695312 10.359375 -2.882812 9.921875 -2.15625 C 9.484375 -1.4375 8.882812 -0.867188 8.125 -0.453125 C 7.363281 -0.046875 6.503906 0.15625 5.546875 0.15625 Z M 5.546875 -1.65625 C 6.085938 -1.65625 6.578125 -1.78125 7.015625 -2.03125 C 7.453125 -2.28125 7.796875 -2.628906 8.046875 -3.078125 C 8.296875 -3.523438 8.421875 -4.03125 8.421875 -4.59375 C 8.421875 -5.164062 8.296875 -5.675781 8.046875 -6.125 C 7.796875 -6.570312 7.453125 -6.921875 7.015625 -7.171875 C 6.578125 -7.421875 6.085938 -7.546875 5.546875 -7.546875 C 5.003906 -7.546875 4.515625 -7.421875 4.078125 -7.171875 C 3.640625 -6.921875 3.296875 -6.570312 3.046875 -6.125 C 2.796875 -5.675781 2.671875 -5.164062 2.671875 -4.59375 C 2.671875 -4.03125 2.796875 -3.523438 3.046875 -3.078125 C 3.296875 -2.628906 3.640625 -2.28125 4.078125 -2.03125 C 4.515625 -1.78125 5.003906 -1.65625 5.546875 -1.65625 Z M 5.546875 -1.65625 "/></g></g><g style="fill:#262525;fill-opacity:1;"><g transform="translate(255.645572, 234.737387)"><path style="stroke:none" d="M 7.15625 -1.96875 L 2.875 -1.96875 L 2.0625 0 L -0.125 0 L 3.984375 -9.203125 L 6.078125 -9.203125 L 10.203125 0 L 7.96875 0 Z M 6.484375 -3.59375 L 5.015625 -7.109375 L 3.5625 -3.59375 Z M 6.484375 -3.59375 "/></g></g><g style="fill:#262525;fill-opacity:1;"><g transform="translate(268.638884, 234.737387)"><path style="stroke:none" d="M 6.953125 0 L 5.171875 -2.5625 L 3.21875 -2.5625 L 3.21875 0 L 1.09375 0 L 1.09375 -9.203125 L 5.078125 -9.203125 C 5.890625 -9.203125 6.59375 -9.066406 7.1875 -8.796875 C 7.789062 -8.523438 8.253906 -8.140625 8.578125 -7.640625 C 8.898438 -7.140625 9.0625 -6.546875 9.0625 -5.859375 C 9.0625 -5.171875 8.894531 -4.578125 8.5625 -4.078125 C 8.238281 -3.585938 7.773438 -3.210938 7.171875 -2.953125 L 9.234375 0 Z M 6.90625 -5.859375 C 6.90625 -6.378906 6.738281 -6.773438 6.40625 -7.046875 C 6.070312 -7.328125 5.585938 -7.46875 4.953125 -7.46875 L 3.21875 -7.46875 L 3.21875 -4.25 L 4.953125 -4.25 C 5.585938 -4.25 6.070312 -4.390625 6.40625 -4.671875 C 6.738281 -4.953125 6.90625 -5.347656 6.90625 -5.859375 Z M 6.90625 -5.859375 "/></g></g><g style="fill:#262525;fill-opacity:1;"><g transform="translate(281.224946, 234.737387)"><path style="stroke:none" d="M 1.09375 -9.203125 L 5.265625 -9.203125 C 6.265625 -9.203125 7.144531 -9.007812 7.90625 -8.625 C 8.675781 -8.25 9.273438 -7.710938 9.703125 -7.015625 C 10.128906 -6.328125 10.34375 -5.519531 10.34375 -4.59375 C 10.34375 -3.675781 10.128906 -2.867188 9.703125 -2.171875 C 9.273438 -1.484375 8.675781 -0.945312 7.90625 -0.5625 C 7.144531 -0.1875 6.265625 0 5.265625 0 L 1.09375 0 Z M 5.171875 -1.75 C 6.085938 -1.75 6.816406 -2.003906 7.359375 -2.515625 C 7.910156 -3.023438 8.1875 -3.71875 8.1875 -4.59375 C 8.1875 -5.46875 7.910156 -6.160156 7.359375 -6.671875 C 6.816406 -7.191406 6.085938 -7.453125 5.171875 -7.453125 L 3.21875 -7.453125 L 3.21875 -1.75 Z M 5.171875 -1.75 "/></g></g><g style="fill:#262525;fill-opacity:1;"><g transform="translate(172.164544, 252.737386)"><path style="stroke:none" d="M 7.15625 -1.96875 L 2.875 -1.96875 L 2.0625 0 L -0.125 0 L 3.984375 -9.203125 L 6.078125 -9.203125 L 10.203125 0 L 7.96875 0 Z M 6.484375 -3.59375 L 5.015625 -7.109375 L 3.5625 -3.59375 Z M 6.484375 -3.59375 "/></g></g><g style="fill:#262525;fill-opacity:1;"><g transform="translate(185.157856, 252.737386)"><path style="stroke:none" d="M 5.078125 -9.203125 C 5.890625 -9.203125 6.59375 -9.066406 7.1875 -8.796875 C 7.789062 -8.523438 8.253906 -8.140625 8.578125 -7.640625 C 8.898438 -7.140625 9.0625 -6.546875 9.0625 -5.859375 C 9.0625 -5.179688 8.898438 -4.59375 8.578125 -4.09375 C 8.253906 -3.59375 7.789062 -3.207031 7.1875 -2.9375 C 6.59375 -2.664062 5.890625 -2.53125 5.078125 -2.53125 L 3.21875 -2.53125 L 3.21875 0 L 1.09375 0 L 1.09375 -9.203125 Z M 4.953125 -4.265625 C 5.585938 -4.265625 6.070312 -4.398438 6.40625 -4.671875 C 6.738281 -4.953125 6.90625 -5.347656 6.90625 -5.859375 C 6.90625 -6.378906 6.738281 -6.773438 6.40625 -7.046875 C 6.070312 -7.328125 5.585938 -7.46875 4.953125 -7.46875 L 3.21875 -7.46875 L 3.21875 -4.265625 Z M 4.953125 -4.265625 "/></g></g><g style="fill:#262525;fill-opacity:1;"><g transform="translate(197.704517, 252.737386)"><path style="stroke:none" d="M 5.078125 -9.203125 C 5.890625 -9.203125 6.59375 -9.066406 7.1875 -8.796875 C 7.789062 -8.523438 8.253906 -8.140625 8.578125 -7.640625 C 8.898438 -7.140625 9.0625 -6.546875 9.0625 -5.859375 C 9.0625 -5.179688 8.898438 -4.59375 8.578125 -4.09375 C 8.253906 -3.59375 7.789062 -3.207031 7.1875 -2.9375 C 6.59375 -2.664062 5.890625 -2.53125 5.078125 -2.53125 L 3.21875 -2.53125 L 3.21875 0 L 1.09375 0 L 1.09375 -9.203125 Z M 4.953125 -4.265625 C 5.585938 -4.265625 6.070312 -4.398438 6.40625 -4.671875 C 6.738281 -4.953125 6.90625 -5.347656 6.90625 -5.859375 C 6.90625 -6.378906 6.738281 -6.773438 6.40625 -7.046875 C 6.070312 -7.328125 5.585938 -7.46875 4.953125 -7.46875 L 3.21875 -7.46875 L 3.21875 -4.265625 Z M 4.953125 -4.265625 "/></g></g></g></svg>