<svg xmlns="http://www.w3.org/2000/svg" xmlns:xlink="http://www.w3.org/1999/xlink" width="500" zoomAndPan="magnify" viewBox="0 0 375 374.999991" height="500" preserveAspectRatio="xMidYMid meet" version="1.2"><defs/><g id="f62b264d22"><rect x="0" width="375" y="0" height="374.999991" style="fill:#ffffff;fill-opacity:1;stroke:none;"/><rect x="0" width="375" y="0" height="374.999991" style="fill:#e4e2dd;fill-opacity:1;stroke:none;"/><g style="fill:#262525;fill-opacity:1;"><g transform="translate(113.278588, 214.09925)"><path style="stroke:none" d="M 29.3125 -68.21875 L 29.3125 -46.078125 L 68.09375 -46.078125 L 68.09375 -30.515625 L 29.3125 -30.515625 L 29.3125 0 L 9.9375 0 L 9.9375 -83.765625 L 73.234375 -83.765625 L 73.234375 -68.21875 Z M 29.3125 -68.21875 "/></g></g><g style="fill:#262525;fill-opacity:1;"><g transform="translate(174.657193, 214.09925)"><path style="stroke:none" d="M 71.4375 -43.5625 C 76.226562 -42.039062 79.976562 -39.503906 82.6875 -35.953125 C 85.40625 -32.410156 86.765625 -28.046875 86.765625 -22.859375 C 86.765625 -15.515625 83.910156 -9.867188 78.203125 -5.921875 C 72.503906 -1.972656 64.1875 0 53.25 0 L 9.9375 0 L 9.9375 -83.765625 L 50.859375 -83.765625 C 61.066406 -83.765625 68.90625 -81.8125 74.375 -77.90625 C 79.84375 -74 82.578125 -68.691406 82.578125 -61.984375 C 82.578125 -57.921875 81.597656 -54.289062 79.640625 -51.09375 C 77.679688 -47.90625 74.945312 -45.394531 71.4375 -43.5625 Z M 29.203125 -69.171875 L 29.203125 -49.421875 L 48.46875 -49.421875 C 53.25 -49.421875 56.875 -50.257812 59.34375 -51.9375 C 61.820312 -53.613281 63.0625 -56.085938 63.0625 -59.359375 C 63.0625 -62.628906 61.820312 -65.082031 59.34375 -66.71875 C 56.875 -68.351562 53.25 -69.171875 48.46875 -69.171875 Z M 51.8125 -14.59375 C 56.925781 -14.59375 60.773438 -15.429688 63.359375 -17.109375 C 65.953125 -18.785156 67.25 -21.378906 67.25 -24.890625 C 67.25 -31.828125 62.101562 -35.296875 51.8125 -35.296875 L 29.203125 -35.296875 L 29.203125 -14.59375 Z M 51.8125 -14.59375 "/></g></g><g style="fill:#262525;fill-opacity:1;"><g transform="translate(108.804892, 234.737387)"><path style="stroke:none" d="M 3.21875 -7.484375 L 3.21875 -5.0625 L 7.484375 -5.0625 L 7.484375 -3.34375 L 3.21875 -3.34375 L 3.21875 0 L 1.09375 0 L 1.09375 -9.203125 L 8.046875 -9.203125 L 8.046875 -7.484375 Z M 3.21875 -7.484375 "/></g></g><g style="fill:#262525;fill-opacity:1;"><g transform="translate(120.129838, 234.737387)"><path style="stroke:none" d="M 5.5 -3.265625 L 5.5 0 L 3.375 0 L 3.375 -3.28125 L -0.1875 -9.203125 L 2.078125 -9.203125 L 4.53125 -5.109375 L 6.984375 -9.203125 L 9.078125 -9.203125 Z M 5.5 -3.265625 "/></g></g><g style="fill:#262525;fill-opacity:1;"><g transform="translate(131.94085, 234.737387)"><path style="stroke:none" d="M 9.53125 -9.203125 L 9.53125 0 L 7.78125 0 L 3.1875 -5.578125 L 3.1875 0 L 1.09375 0 L 1.09375 -9.203125 L 2.84375 -9.203125 L 7.421875 -3.609375 L 7.421875 -9.203125 Z M 9.53125 -9.203125 "/></g></g><g style="fill:#262525;fill-opacity:1;"><g transform="translate(145.485904, 234.737387)"><path style="stroke:none" d="M 9.53125 -9.203125 L 9.53125 0 L 7.78125 0 L 3.1875 -5.578125 L 3.1875 0 L 1.09375 0 L 1.09375 -9.203125 L 2.84375 -9.203125 L 7.421875 -3.609375 L 7.421875 -9.203125 Z M 9.53125 -9.203125 "/></g></g><g style="fill:#262525;fill-opacity:1;"><g transform="translate(159.030959, 234.737387)"><path style="stroke:none" d=""/></g></g><g style="fill:#262525;fill-opacity:1;"><g transform="translate(165.67922, 234.737387)"><path style="stroke:none" d="M 7.84375 -4.78125 C 8.375 -4.613281 8.785156 -4.332031 9.078125 -3.9375 C 9.378906 -3.550781 9.53125 -3.078125 9.53125 -2.515625 C 9.53125 -1.703125 9.210938 -1.078125 8.578125 -0.640625 C 7.953125 -0.210938 7.039062 0 5.84375 0 L 1.09375 0 L 1.09375 -9.203125 L 5.578125 -9.203125 C 6.703125 -9.203125 7.5625 -8.984375 8.15625 -8.546875 C 8.757812 -8.117188 9.0625 -7.539062 9.0625 -6.8125 C 9.0625 -6.363281 8.953125 -5.960938 8.734375 -5.609375 C 8.523438 -5.253906 8.226562 -4.976562 7.84375 -4.78125 Z M 3.203125 -7.59375 L 3.203125 -5.421875 L 5.328125 -5.421875 C 5.847656 -5.421875 6.242188 -5.515625 6.515625 -5.703125 C 6.785156 -5.890625 6.921875 -6.160156 6.921875 -6.515625 C 6.921875 -6.878906 6.785156 -7.148438 6.515625 -7.328125 C 6.242188 -7.503906 5.847656 -7.59375 5.328125 -7.59375 Z M 5.6875 -1.609375 C 6.25 -1.609375 6.671875 -1.695312 6.953125 -1.875 C 7.242188 -2.0625 7.390625 -2.347656 7.390625 -2.734375 C 7.390625 -3.492188 6.820312 -3.875 5.6875 -3.875 L 3.203125 -3.875 L 3.203125 -1.609375 Z M 5.6875 -1.609375 "/></g></g><g style="fill:#262525;fill-opacity:1;"><g transform="translate(178.659395, 234.737387)"><path style="stroke:none" d="M 1.09375 -9.203125 L 3.21875 -9.203125 L 3.21875 -1.734375 L 7.828125 -1.734375 L 7.828125 0 L 1.09375 0 Z M 1.09375 -9.203125 "/></g></g><g style="fill:#262525;fill-opacity:1;"><g transform="translate(189.524552, 234.737387)"><path style="stroke:none" d="M 7.15625 -1.96875 L 2.875 -1.96875 L 2.0625 0 L -0.125 0 L 3.984375 -9.203125 L 6.078125 -9.203125 L 10.203125 0 L 7.96875 0 Z M 6.484375 -3.59375 L 5.015625 -7.109375 L 3.5625 -3.59375 Z M 6.484375 -3.59375 "/></g></g><g style="fill:#262525;fill-opacity:1;"><g transform="translate(202.517864, 234.737387)"><path style="stroke:none" d="M 5.171875 0.15625 C 3.859375 0.15625 2.835938 -0.207031 2.109375 -0.9375 C 1.378906 -1.664062 1.015625 -2.703125 1.015625 -4.046875 L 1.015625 -9.203125 L 3.140625 -9.203125 L 3.140625 -4.125 C 3.140625 -2.476562 3.820312 -1.65625 5.1875 -1.65625 C 5.851562 -1.65625 6.359375 -1.851562 6.703125 -2.25 C 7.054688 -2.644531 7.234375 -3.269531 7.234375 -4.125 L 7.234375 -9.203125 L 9.34375 -9.203125 L 9.34375 -4.046875 C 9.34375 -2.703125 8.976562 -1.664062 8.25 -0.9375 C 7.519531 -0.207031 6.492188 0.15625 5.171875 0.15625 Z M 5.171875 0.15625 "/></g></g><g style="fill:#262525;fill-opacity:1;"><g transform="translate(215.800185, 234.737387)"><path style="stroke:none" d="M 6.953125 0 L 5.171875 -2.5625 L 3.21875 -2.5625 L 3.21875 0 L 1.09375 0 L 1.09375 -9.203125 L 5.078125 -9.203125 C 5.890625 -9.203125 6.59375 -9.066406 7.1875 -8.796875 C 7.789062 -8.523438 8.253906 -8.140625 8.578125 -7.640625 C 8.898438 -7.140625 9.0625 -6.546875 9.0625 -5.859375 C 9.0625 -5.171875 8.894531 -4.578125 8.5625 -4.078125 C 8.238281 -3.585938 7.773438 -3.210938 7.171875 -2.953125 L 9.234375 0 Z M 6.90625 -5.859375 C 6.90625 -6.378906 6.738281 -6.773438 6.40625 -7.046875 C 6.070312 -7.328125 5.585938 -7.46875 4.953125 -7.46875 L 3.21875 -7.46875 L 3.21875 -4.25 L 4.953125 -4.25 C 5.585938 -4.25 6.070312 -4.390625 6.40625 -4.671875 C 6.738281 -4.953125 6.90625 -5.347656 6.90625 -5.859375 Z M 6.90625 -5.859375 "/></g></g><g style="fill:#262525;fill-opacity:1;"><g transform="translate(228.386259, 234.737387)"><path style="stroke:none" d="M 5.546875 0.15625 C 4.585938 0.15625 3.722656 -0.046875 2.953125 -0.453125 C 2.191406 -0.867188 1.59375 -1.4375 1.15625 -2.15625 C 0.726562 -2.882812 0.515625 -3.695312 0.515625 -4.59375 C 0.515625 -5.5 0.726562 -6.3125 1.15625 -7.03125 C 1.59375 -7.757812 2.191406 -8.328125 2.953125 -8.734375 C 3.722656 -9.148438 4.585938 -9.359375 5.546875 -9.359375 C 6.503906 -9.359375 7.363281 -9.148438 8.125 -8.734375 C 8.882812 -8.328125 9.484375 -7.757812 9.921875 -7.03125 C 10.359375 -6.3125 10.578125 -5.5 10.578125 -4.59375 C 10.578125 -3.695312 10.359375 -2.882812 9.921875 -2.15625 C 9.484375 -1.4375 8.882812 -0.867188 8.125 -0.453125 C 7.363281 -0.046875 6.503906 0.15625 5.546875 0.15625 Z M 5.546875 -1.65625 C 6.085938 -1.65625 6.578125 -1.78125 7.015625 -2.03125 C 7.453125 -2.28125 7.796875 -2.628906 8.046875 -3.078125 C 8.296875 -3.523438 8.421875 -4.03125 8.421875 -4.59375 C 8.421875 -5.164062 8.296875 -5.675781 8.046875 -6.125 C 7.796875 -6.570312 7.453125 -6.921875 7.015625 -7.171875 C 6.578125 -7.421875 6.085938 -7.546875 5.546875 -7.546875 C 5.003906 -7.546875 4.515625 -7.421875 4.078125 -7.171875 C 3.640625 -6.921875 3.296875 -6.570312 3.046875 -6.125 C 2.796875 -5.675781 2.671875 -5.164062 2.671875 -4.59375 C 2.671875 -4.03125 2.796875 -3.523438 3.046875 -3.078125 C 3.296875 -2.628906 3.640625 -2.28125 4.078125 -2.03125 C 4.515625 -1.78125 5.003906 -1.65625 5.546875 -1.65625 Z M 5.546875 -1.65625 "/></g></g><g style="fill:#262525;fill-opacity:1;"><g transform="translate(242.40424, 234.737387)"><path style="stroke:none" d="M 5.5 0.15625 C 4.5625 0.15625 3.710938 -0.046875 2.953125 -0.453125 C 2.191406 -0.859375 1.59375 -1.421875 1.15625 -2.140625 C 0.726562 -2.867188 0.515625 -3.6875 0.515625 -4.59375 C 0.515625 -5.507812 0.726562 -6.328125 1.15625 -7.046875 C 1.59375 -7.773438 2.191406 -8.34375 2.953125 -8.75 C 3.710938 -9.15625 4.5625 -9.359375 5.5 -9.359375 C 6.300781 -9.359375 7.023438 -9.21875 7.671875 -8.9375 C 8.316406 -8.65625 8.859375 -8.253906 9.296875 -7.734375 L 7.921875 -6.46875 C 7.296875 -7.1875 6.523438 -7.546875 5.609375 -7.546875 C 5.035156 -7.546875 4.523438 -7.421875 4.078125 -7.171875 C 3.640625 -6.921875 3.296875 -6.570312 3.046875 -6.125 C 2.796875 -5.675781 2.671875 -5.164062 2.671875 -4.59375 C 2.671875 -4.03125 2.796875 -3.523438 3.046875 -3.078125 C 3.296875 -2.628906 3.640625 -2.28125 4.078125 -2.03125 C 4.523438 -1.78125 5.035156 -1.65625 5.609375 -1.65625 C 6.523438 -1.65625 7.296875 -2.019531 7.921875 -2.75 L 9.296875 -1.484375 C 8.859375 -0.953125 8.3125 -0.546875 7.65625 -0.265625 C 7.007812 0.015625 6.289062 0.15625 5.5 0.15625 Z M 5.5 0.15625 "/></g></g><g style="fill:#262525;fill-opacity:1;"><g transform="translate(254.964039, 234.737387)"><path style="stroke:none" d="M 4.4375 -3.609375 L 3.203125 -2.328125 L 3.203125 0 L 1.09375 0 L 1.09375 -9.203125 L 3.203125 -9.203125 L 3.203125 -4.90625 L 7.28125 -9.203125 L 9.640625 -9.203125 L 5.828125 -5.09375 L 9.875 0 L 7.390625 0 Z M 4.4375 -3.609375 "/></g></g></g></svg>